<?xml version="1.0" encoding="UTF-8"?>
<svg width="72px" height="72px" viewBox="0 0 72 72" version="1.1" xmlns="http://www.w3.org/2000/svg" xmlns:xlink="http://www.w3.org/1999/xlink">
    <!-- Generator: Sketch 51 (57462) - http://www.bohemiancoding.com/sketch -->
    <title>Accordion Copy 20</title>
    <desc>Created with Sketch.</desc>
    <defs></defs>
    <g id="Accordion-Copy-20" stroke="none" stroke-width="1" fill="none" fill-rule="evenodd">
        <path d="M37.5,36 L34.5,36 L34.5,12 L37.5,12 L37.5,36 Z M42.46875,19.03125 C44.6250108,19.7187534 46.5976473,20.7187434 48.3867188,22.03125 C50.1757902,23.3437566 51.7070249,24.8828037 52.9804688,26.6484375 C54.2539126,28.4140713 55.242184,30.351552 55.9453125,32.4609375 C56.648441,34.570323 57,36.7499887 57,39 C57,40.9375097 56.7500025,42.8007723 56.25,44.5898438 C55.7499975,46.3789152 55.0429733,48.0507735 54.1289062,49.6054688 C53.2148392,51.160164 52.1211001,52.5742124 50.8476562,53.8476562 C49.5742124,55.1211001 48.160164,56.2148392 46.6054688,57.1289062 C45.0507735,58.0429733 43.3789152,58.7499975 41.5898438,59.25 C39.8007723,59.7500025 37.9375097,60 36,60 C34.0624903,60 32.1992277,59.7500025 30.4101562,59.25 C28.6210848,58.7499975 26.9492265,58.0429733 25.3945312,57.1289062 C23.839836,56.2148392 22.4257876,55.1211001 21.1523438,53.8476562 C19.8788999,52.5742124 18.7851608,51.160164 17.8710938,49.6054688 C16.9570267,48.0507735 16.2500025,46.3789152 15.75,44.5898438 C15.2499975,42.8007723 15,40.9375097 15,39 C15,36.7499887 15.351559,34.570323 16.0546875,32.4609375 C16.757816,30.351552 17.7460874,28.4140713 19.0195312,26.6484375 C20.2929751,24.8828037 21.8242098,23.3437566 23.6132812,22.03125 C25.4023527,20.7187434 27.3749892,19.7187534 29.53125,19.03125 L30.46875,21.8671875 C28.6093657,22.4765655 26.9140702,23.3437444 25.3828125,24.46875 C23.8515548,25.5937556 22.539068,26.9062425 21.4453125,28.40625 C20.351557,29.9062575 19.5039093,31.5585847 18.9023438,33.3632812 C18.3007782,35.1679778 18,37.0468652 18,39 C18,40.6562583 18.2148416,42.2499923 18.6445312,43.78125 C19.0742209,45.3125077 19.6796836,46.7460871 20.4609375,48.0820312 C21.2421914,49.4179754 22.179682,50.632807 23.2734375,51.7265625 C24.367193,52.820318 25.5820246,53.7578086 26.9179688,54.5390625 C28.2539129,55.3203164 29.6874923,55.9257791 31.21875,56.3554688 C32.7500077,56.7851584 34.3437417,57 36,57 C37.6562583,57 39.2499923,56.7851584 40.78125,56.3554688 C42.3125077,55.9257791 43.7460871,55.3203164 45.0820312,54.5390625 C46.4179754,53.7578086 47.632807,52.820318 48.7265625,51.7265625 C49.820318,50.632807 50.7578086,49.4179754 51.5390625,48.0820312 C52.3203164,46.7460871 52.9257791,45.3125077 53.3554688,43.78125 C53.7851584,42.2499923 54,40.6562583 54,39 C54,37.0468652 53.6992218,35.1679778 53.0976562,33.3632812 C52.4960907,31.5585847 51.648443,29.9062575 50.5546875,28.40625 C49.460932,26.9062425 48.1484452,25.5937556 46.6171875,24.46875 C45.0859298,23.3437444 43.3906343,22.4765655 41.53125,21.8671875 L42.46875,19.03125 Z" id="" fill="#B3B3B3"></path>
    </g>
</svg>