<?xml version="1.0" encoding="UTF-8"?>
<svg width="72px" height="72px" viewBox="0 0 72 72" version="1.1" xmlns="http://www.w3.org/2000/svg" xmlns:xlink="http://www.w3.org/1999/xlink">
    <!-- Generator: Sketch 51 (57462) - http://www.bohemiancoding.com/sketch -->
    <title>Accordion Copy 115</title>
    <desc>Created with Sketch.</desc>
    <defs></defs>
    <g id="Accordion-Copy-115" stroke="none" stroke-width="1" fill="none" fill-rule="evenodd">
        <path d="M43.171875,40.1953125 C45.2968856,40.9296912 47.2148352,41.9570246 48.9257812,43.2773438 C50.6367273,44.5976629 52.0898378,46.1249913 53.2851562,47.859375 C54.4804747,49.5937587 55.3984343,51.4921772 56.0390625,53.5546875 C56.6796907,55.6171978 57,57.7656138 57,60 L54,60 C54,57.4374872 53.5429733,55.0586047 52.6289062,52.8632812 C51.7148392,50.6679578 50.453133,48.765633 48.84375,47.15625 C47.234367,45.546867 45.3320422,44.2851608 43.1367188,43.3710938 C40.9413953,42.4570267 38.5625128,42 36,42 C34.3281166,42 32.7187577,42.2109354 31.171875,42.6328125 C29.6249923,43.0546896 28.1836004,43.6523399 26.8476562,44.4257812 C25.5117121,45.1992226 24.3007867,46.1289008 23.2148438,47.2148438 C22.1289008,48.3007867 21.1992226,49.5117121 20.4257812,50.8476562 C19.6523399,52.1836004 19.0546896,53.6249923 18.6328125,55.171875 C18.2109354,56.7187577 18,58.3281166 18,60 L15,60 C15,57.7499887 15.3281217,55.5976665 15.984375,53.5429688 C16.6406283,51.488271 17.5703065,49.6015711 18.7734375,47.8828125 C19.9765685,46.1640539 21.4335852,44.6484441 23.1445312,43.3359375 C24.8554773,42.0234309 26.7656145,40.9843788 28.875,40.21875 C27.6562439,39.5624967 26.5625048,38.7656297 25.59375,37.828125 C24.6249952,36.8906203 23.8007846,35.847662 23.1210938,34.6992188 C22.4414029,33.5507755 21.9179706,32.3242253 21.5507812,31.0195312 C21.1835919,29.7148372 21,28.3750069 21,27 C21,24.9218646 21.3906211,22.9726654 22.171875,21.1523438 C22.9531289,19.3320221 24.0234307,17.7421943 25.3828125,16.3828125 C26.7421943,15.0234307 28.3320221,13.9531289 30.1523438,13.171875 C31.9726654,12.3906211 33.9218646,12 36,12 C38.0781354,12 40.0273346,12.3906211 41.8476562,13.171875 C43.6679779,13.9531289 45.2578057,15.0234307 46.6171875,16.3828125 C47.9765693,17.7421943 49.0468711,19.3320221 49.828125,21.1523438 C50.6093789,22.9726654 51,24.9218646 51,27 C51,28.3750069 50.8164081,29.710931 50.4492188,31.0078125 C50.0820294,32.304694 49.5585971,33.5234318 48.8789062,34.6640625 C48.1992154,35.8046932 47.3789111,36.8476515 46.4179688,37.7929688 C45.4570264,38.738286 44.375006,39.5390592 43.171875,40.1953125 Z M24,27 C24,28.6562583 24.3164031,30.2109302 24.9492188,31.6640625 C25.5820344,33.1171948 26.4414008,34.3867133 27.5273438,35.4726562 C28.6132867,36.5585992 29.8828052,37.4179656 31.3359375,38.0507812 C32.7890698,38.6835969 34.3437417,39 36,39 C37.6562583,39 39.2109302,38.6835969 40.6640625,38.0507812 C42.1171948,37.4179656 43.3867133,36.5585992 44.4726562,35.4726562 C45.5585992,34.3867133 46.4179656,33.1171948 47.0507812,31.6640625 C47.6835969,30.2109302 48,28.6562583 48,27 C48,25.3437417 47.6835969,23.7890698 47.0507812,22.3359375 C46.4179656,20.8828052 45.5585992,19.6132867 44.4726562,18.5273438 C43.3867133,17.4414008 42.1171948,16.5820344 40.6640625,15.9492188 C39.2109302,15.3164031 37.6562583,15 36,15 C34.3437417,15 32.7890698,15.3164031 31.3359375,15.9492188 C29.8828052,16.5820344 28.6132867,17.4414008 27.5273438,18.5273438 C26.4414008,19.6132867 25.5820344,20.8828052 24.9492188,22.3359375 C24.3164031,23.7890698 24,25.3437417 24,27 Z" id="" fill="#B3B3B3"></path>
    </g>
</svg>